<?xml version="1.0" encoding="utf-8"?>
<svg width="20px" height="30px" viewBox="0 0 20 30" version="1.1" xmlns:xlink="http://www.w3.org/1999/xlink" xmlns="http://www.w3.org/2000/svg">
  <desc>Created with Lunacy</desc>
  <defs>
    <path d="M10.1398 0L9.86 0Q9.72706 0 9.59427 0.00652341Q9.46148 0.0130468 9.32917 0.0260779Q9.19687 0.039109 9.06536 0.0586164Q8.93385 0.0781238 8.80346 0.10406Q8.67306 0.129997 8.5441 0.162301Q8.41514 0.194604 8.28792 0.233197Q8.16069 0.271789 8.03552 0.316578Q7.91034 0.361366 7.78752 0.412243Q7.66469 0.46312 7.54451 0.519962Q7.42432 0.576804 7.30707 0.639475Q7.18983 0.702146 7.07579 0.770494Q6.96176 0.838843 6.85122 0.912704Q6.74068 0.986566 6.63389 1.06576Q6.52711 1.14496 6.42434 1.2293Q6.32157 1.31364 6.22306 1.40292Q6.12456 1.4922 6.03055 1.58621Q5.93654 1.68022 5.84726 1.77873Q5.75798 1.87723 5.67364 1.98Q5.58929 2.08277 5.5101 2.18956Q5.4309 2.29634 5.35704 2.40688Q5.28318 2.51742 5.21483 2.63146Q5.14648 2.74549 5.08381 2.86274Q5.02114 2.97999 4.9643 3.10017Q4.90745 3.22035 4.85658 3.34318Q4.8057 3.46601 4.76091 3.59118Q4.71612 3.71636 4.67753 3.84358Q4.63894 3.9708 4.60664 4.09977Q4.57433 4.22873 4.5484 4.35912Q4.52246 4.48951 4.50295 4.62102Q4.48344 4.75253 4.47041 4.88484Q4.45738 5.01715 4.45086 5.14993Q4.44434 5.28272 4.44434 5.41567L4.44434 5.41767Q4.44434 5.55061 4.45086 5.6834Q4.45738 5.81619 4.47041 5.94849Q4.48344 6.0808 4.50295 6.21231Q4.52246 6.34382 4.5484 6.47421Q4.57433 6.6046 4.60664 6.73356Q4.63894 6.86253 4.67753 6.98975Q4.71612 7.11697 4.76091 7.24215Q4.8057 7.36732 4.85658 7.49015Q4.90745 7.61298 4.9643 7.73316Q5.02114 7.85334 5.08381 7.97059Q5.14648 8.08784 5.21483 8.20187Q5.28318 8.31591 5.35704 8.42645Q5.4309 8.53699 5.5101 8.64377Q5.58929 8.75056 5.67364 8.85333Q5.75798 8.9561 5.84726 9.05461Q5.93654 9.15311 6.03055 9.24712Q6.12456 9.34113 6.22306 9.43041Q6.32157 9.51969 6.42434 9.60403Q6.52711 9.68837 6.63389 9.76757Q6.74068 9.84677 6.85122 9.92063Q6.96176 9.99449 7.07579 10.0628Q7.18983 10.1312 7.30707 10.1939Q7.42432 10.2565 7.54451 10.3134Q7.66469 10.3702 7.78752 10.4211Q7.91034 10.472 8.03552 10.5168Q8.16069 10.5615 8.28792 10.6001Q8.41514 10.6387 8.5441 10.671Q8.67306 10.7033 8.80346 10.7293Q8.93385 10.7552 9.06536 10.7747Q9.19687 10.7942 9.32917 10.8073Q9.46148 10.8203 9.59427 10.8268Q9.72706 10.8333 9.86 10.8333L10.1398 10.8333Q10.2727 10.8333 10.4055 10.8268Q10.5383 10.8203 10.6706 10.8073Q10.8029 10.7942 10.9344 10.7747Q11.0659 10.7552 11.1963 10.7293Q11.3267 10.7033 11.4557 10.671Q11.5846 10.6387 11.7119 10.6001Q11.8391 10.5615 11.9643 10.5168Q12.0894 10.472 12.2123 10.4211Q12.3351 10.3702 12.4553 10.3134Q12.5755 10.2565 12.6927 10.1939Q12.81 10.1312 12.924 10.0628Q13.038 9.99449 13.1486 9.92063Q13.2591 9.84677 13.3659 9.76757Q13.4727 9.68837 13.5754 9.60403Q13.6782 9.51969 13.7767 9.43041Q13.8752 9.34113 13.9692 9.24712Q14.0632 9.15311 14.1525 9.05461Q14.2418 8.9561 14.3261 8.85333Q14.4105 8.75056 14.4897 8.64377Q14.5689 8.53699 14.6427 8.42645Q14.7166 8.31591 14.785 8.20187Q14.8533 8.08784 14.916 7.97059Q14.9786 7.85334 15.0355 7.73316Q15.0923 7.61298 15.1432 7.49015Q15.1941 7.36732 15.2389 7.24215Q15.2837 7.11697 15.3222 6.98975Q15.3608 6.86253 15.3931 6.73357Q15.4254 6.6046 15.4514 6.47421Q15.4773 6.34382 15.4968 6.21231Q15.5163 6.0808 15.5294 5.94849Q15.5424 5.81619 15.5489 5.6834Q15.5554 5.55061 15.5554 5.41767L15.5554 5.41567Q15.5554 5.28272 15.5489 5.14993Q15.5424 5.01715 15.5294 4.88484Q15.5163 4.75253 15.4968 4.62102Q15.4773 4.48951 15.4514 4.35912Q15.4254 4.22873 15.3931 4.09977Q15.3608 3.9708 15.3222 3.84358Q15.2837 3.71636 15.2389 3.59118Q15.1941 3.46601 15.1432 3.34318Q15.0923 3.22035 15.0355 3.10017Q14.9786 2.97999 14.916 2.86274Q14.8533 2.74549 14.785 2.63146Q14.7166 2.51742 14.6427 2.40688Q14.5689 2.29634 14.4897 2.18956Q14.4105 2.08277 14.3261 1.98Q14.2418 1.87723 14.1525 1.77873Q14.0632 1.68022 13.9692 1.58621Q13.8752 1.4922 13.7767 1.40292Q13.6782 1.31364 13.5754 1.2293Q13.4727 1.14496 13.3659 1.06576Q13.2591 0.986566 13.1486 0.912704Q13.038 0.838843 12.924 0.770494Q12.81 0.702146 12.6927 0.639475Q12.5755 0.576804 12.4553 0.519962Q12.3351 0.46312 12.2123 0.412243Q12.0894 0.361366 11.9643 0.316578Q11.8391 0.271789 11.7119 0.233197Q11.5846 0.194604 11.4557 0.162301Q11.3267 0.129997 11.1963 0.10406Q11.0659 0.0781238 10.9344 0.0586164Q10.8029 0.039109 10.6706 0.0260779Q10.5383 0.0130468 10.4055 0.00652341Q10.2727 0 10.1398 0ZM9.999 13L10.001 13Q10.2465 13 10.4916 13.012Q10.7368 13.0241 10.9811 13.0481Q11.2254 13.0722 11.4682 13.1082Q11.711 13.1442 11.9517 13.1921Q12.1925 13.24 12.4306 13.2997Q12.6687 13.3593 12.9036 13.4306Q13.1384 13.5018 13.3696 13.5845Q13.6007 13.6672 13.8274 13.7611Q14.0542 13.8551 14.2761 13.96Q14.498 14.065 14.7145 14.1807Q14.931 14.2964 15.1415 14.4226Q15.352 14.5488 15.5561 14.6851Q15.7602 14.8215 15.9574 14.9677Q16.1546 15.1139 16.3443 15.2697Q16.534 15.4254 16.7159 15.5902Q16.8978 15.7551 17.0714 15.9286Q17.2449 16.1022 17.4098 16.2841Q17.5746 16.466 17.7303 16.6557Q17.886 16.8454 18.0323 17.0426Q18.1785 17.2398 18.3149 17.4438Q18.4512 17.6479 18.5774 17.8585Q18.7036 18.069 18.8193 18.2855Q18.935 18.502 19.04 18.7239Q19.1449 18.9458 19.2389 19.1725Q19.3328 19.3993 19.4155 19.6304Q19.4982 19.8615 19.5694 20.0964Q19.6407 20.3313 19.7003 20.5694Q19.76 20.8075 19.8079 21.0483Q19.8558 21.289 19.8918 21.5318Q19.9278 21.7746 19.9519 22.0189Q19.9759 22.2632 19.988 22.5084Q20 22.7535 20 22.999L20 30L0 30L0 22.999Q0 22.7535 0.0120442 22.5084Q0.0240885 22.2632 0.0481479 22.0189Q0.0722074 21.7746 0.108224 21.5318Q0.144241 21.289 0.192128 21.0483Q0.240015 20.8075 0.299657 20.5694Q0.3593 20.3313 0.430553 20.0964Q0.501807 19.8615 0.584501 19.6304Q0.667194 19.3993 0.761128 19.1725Q0.855062 18.9458 0.960011 18.7239Q1.06496 18.502 1.18067 18.2855Q1.29638 18.069 1.42257 17.8585Q1.54876 17.6479 1.68514 17.4438Q1.82151 17.2398 1.96773 17.0426Q2.11395 16.8454 2.26967 16.6557Q2.42539 16.466 2.59023 16.2841Q2.75507 16.1022 2.92864 15.9286Q3.10221 15.7551 3.28408 15.5902Q3.46596 15.4254 3.6557 15.2697Q3.84545 15.1139 4.0426 14.9677Q4.23976 14.8215 4.44385 14.6851Q4.64795 14.5488 4.85849 14.4226Q5.06903 14.2964 5.2855 14.1807Q5.50198 14.065 5.72388 13.96Q5.94577 13.8551 6.17255 13.7611Q6.39932 13.6672 6.63044 13.5845Q6.86155 13.5018 7.09644 13.4306Q7.33134 13.3593 7.56944 13.2997Q7.80755 13.24 8.04829 13.1921Q8.28904 13.1442 8.53184 13.1082Q8.77465 13.0722 9.01893 13.0481Q9.26321 13.0241 9.50837 13.012Q9.75354 13 9.999 13Z" id="path_1" />
    <clipPath id="clip_1">
      <use xlink:href="#path_1" />
    </clipPath>
  </defs>
  <g id="Combined-Shape">
    <g clip-path="url(#clip_1)">
      <use xlink:href="#path_1" fill="none" stroke="#6E6969" stroke-width="2" />
    </g>
  </g>
</svg>