<?xml version="1.0" encoding="utf-8"?>
<svg width="30px" height="22px" viewBox="0 0 30 22" version="1.1" xmlns:xlink="http://www.w3.org/1999/xlink" xmlns="http://www.w3.org/2000/svg">
  <desc>Created with Lunacy</desc>
  <path d="M3.499 0L3.501 0Q3.55015 0 3.59835 0.00958814Q3.64655 0.0191763 3.69196 0.0379841Q3.73736 0.0567919 3.77823 0.0840966Q3.81909 0.111401 3.85385 0.146154Q3.8886 0.180906 3.9159 0.22177Q3.94321 0.262635 3.96202 0.308041Q3.98082 0.353447 3.99041 0.40165Q4 0.449852 4 0.499L4 10.501Q4 10.5501 3.99041 10.5983Q3.98082 10.6466 3.96202 10.692Q3.94321 10.7374 3.9159 10.7782Q3.8886 10.8191 3.85385 10.8538Q3.81909 10.8886 3.77823 10.9159Q3.73736 10.9432 3.69196 10.962Q3.64655 10.9808 3.59835 10.9904Q3.55015 11 3.501 11L3.499 11Q3.44985 11 3.40165 10.9904Q3.35345 10.9808 3.30804 10.962Q3.26263 10.9432 3.22177 10.9159Q3.18091 10.8886 3.14615 10.8538Q3.1114 10.8191 3.0841 10.7782Q3.05679 10.7374 3.03798 10.692Q3.01918 10.6466 3.00959 10.5983Q3 10.5501 3 10.501L3 0.499Q3 0.449852 3.00959 0.40165Q3.01918 0.353447 3.03798 0.308041Q3.05679 0.262635 3.0841 0.22177Q3.1114 0.180906 3.14615 0.146154Q3.18091 0.111401 3.22177 0.0840966Q3.26263 0.0567919 3.30804 0.0379841Q3.35345 0.0191763 3.40165 0.00958814Q3.44985 0 3.499 0ZM7 12.999L7 14.001Q7 14.0994 6.9808 14.1959Q6.96161 14.2924 6.92395 14.3833Q6.8863 14.4742 6.83164 14.556Q6.77697 14.6378 6.7074 14.7074Q6.63782 14.777 6.55601 14.8316Q6.4742 14.8863 6.3833 14.924Q6.2924 14.9616 6.19589 14.9808Q6.09939 15 6.001 15L0.999 15Q0.900607 15 0.804105 14.9808Q0.707602 14.9616 0.616699 14.924Q0.525796 14.8863 0.443985 14.8316Q0.362175 14.777 0.2926 14.7074Q0.223026 14.6378 0.168362 14.556Q0.113698 14.4742 0.0760443 14.3833Q0.038391 14.2924 0.0191955 14.1959Q0 14.0994 0 14.001L0 12.999Q0 12.9006 0.0191955 12.8041Q0.038391 12.7076 0.0760443 12.6167Q0.113698 12.5258 0.168362 12.444Q0.223026 12.3622 0.2926 12.2926Q0.362175 12.223 0.443985 12.1684Q0.525796 12.1137 0.616699 12.076Q0.707602 12.0384 0.804105 12.0192Q0.900607 12 0.999 12L6.001 12Q6.09939 12 6.19589 12.0192Q6.2924 12.0384 6.3833 12.076Q6.4742 12.1137 6.55601 12.1684Q6.63782 12.223 6.7074 12.2926Q6.77697 12.3622 6.83164 12.444Q6.8863 12.5258 6.92395 12.6167Q6.96161 12.7076 6.9808 12.8041Q7 12.9006 7 12.999ZM3.499 16L3.501 16Q3.55015 16 3.59835 16.0096Q3.64655 16.0192 3.69196 16.038Q3.73736 16.0568 3.77823 16.0841Q3.81909 16.1114 3.85385 16.1462Q3.8886 16.1809 3.9159 16.2218Q3.94321 16.2626 3.96202 16.308Q3.98082 16.3534 3.99041 16.4016Q4 16.4499 4 16.499L4 21.501Q4 21.5501 3.99041 21.5983Q3.98082 21.6465 3.96202 21.692Q3.94321 21.7374 3.9159 21.7782Q3.8886 21.8191 3.85385 21.8538Q3.81909 21.8886 3.77823 21.9159Q3.73736 21.9432 3.69196 21.962Q3.64655 21.9808 3.59835 21.9904Q3.55015 22 3.501 22L3.499 22Q3.44985 22 3.40165 21.9904Q3.35345 21.9808 3.30804 21.962Q3.26263 21.9432 3.22177 21.9159Q3.18091 21.8886 3.14615 21.8538Q3.1114 21.8191 3.0841 21.7782Q3.05679 21.7374 3.03798 21.692Q3.01918 21.6465 3.00959 21.5983Q3 21.5501 3 21.501L3 16.499Q3 16.4499 3.00959 16.4016Q3.01918 16.3534 3.03798 16.308Q3.05679 16.2626 3.0841 16.2218Q3.1114 16.1809 3.14615 16.1462Q3.18091 16.1114 3.22177 16.0841Q3.26263 16.0568 3.30804 16.038Q3.35345 16.0192 3.40165 16.0096Q3.44985 16 3.499 16Z" id="Combined-Shape" fill="#6E6969" fill-rule="evenodd" stroke="none" />
  <path d="M3.499 0L3.501 0Q3.55015 0 3.59835 0.00958814Q3.64655 0.0191763 3.69196 0.0379841Q3.73736 0.0567919 3.77823 0.0840966Q3.81909 0.111401 3.85385 0.146154Q3.8886 0.180906 3.9159 0.22177Q3.94321 0.262635 3.96202 0.308041Q3.98082 0.353447 3.99041 0.40165Q4 0.449852 4 0.499L4 10.501Q4 10.5501 3.99041 10.5983Q3.98082 10.6466 3.96202 10.692Q3.94321 10.7374 3.9159 10.7782Q3.8886 10.8191 3.85385 10.8538Q3.81909 10.8886 3.77823 10.9159Q3.73736 10.9432 3.69196 10.962Q3.64655 10.9808 3.59835 10.9904Q3.55015 11 3.501 11L3.499 11Q3.44985 11 3.40165 10.9904Q3.35345 10.9808 3.30804 10.962Q3.26263 10.9432 3.22177 10.9159Q3.18091 10.8886 3.14615 10.8538Q3.1114 10.8191 3.0841 10.7782Q3.05679 10.7374 3.03798 10.692Q3.01918 10.6466 3.00959 10.5983Q3 10.5501 3 10.501L3 0.499Q3 0.449852 3.00959 0.40165Q3.01918 0.353447 3.03798 0.308041Q3.05679 0.262635 3.0841 0.22177Q3.1114 0.180906 3.14615 0.146154Q3.18091 0.111401 3.22177 0.0840966Q3.26263 0.0567919 3.30804 0.0379841Q3.35345 0.0191763 3.40165 0.00958814Q3.44985 0 3.499 0ZM7 12.999L7 14.001Q7 14.0994 6.9808 14.1959Q6.96161 14.2924 6.92395 14.3833Q6.8863 14.4742 6.83164 14.556Q6.77697 14.6378 6.7074 14.7074Q6.63782 14.777 6.55601 14.8316Q6.4742 14.8863 6.3833 14.924Q6.2924 14.9616 6.19589 14.9808Q6.09939 15 6.001 15L0.999 15Q0.900607 15 0.804105 14.9808Q0.707602 14.9616 0.616699 14.924Q0.525796 14.8863 0.443985 14.8316Q0.362175 14.777 0.2926 14.7074Q0.223026 14.6378 0.168362 14.556Q0.113698 14.4742 0.0760443 14.3833Q0.038391 14.2924 0.0191955 14.1959Q0 14.0994 0 14.001L0 12.999Q0 12.9006 0.0191955 12.8041Q0.038391 12.7076 0.0760443 12.6167Q0.113698 12.5258 0.168362 12.444Q0.223026 12.3622 0.2926 12.2926Q0.362175 12.223 0.443985 12.1684Q0.525796 12.1137 0.616699 12.076Q0.707602 12.0384 0.804105 12.0192Q0.900607 12 0.999 12L6.001 12Q6.09939 12 6.19589 12.0192Q6.2924 12.0384 6.3833 12.076Q6.4742 12.1137 6.55601 12.1684Q6.63782 12.223 6.7074 12.2926Q6.77697 12.3622 6.83164 12.444Q6.8863 12.5258 6.92395 12.6167Q6.96161 12.7076 6.9808 12.8041Q7 12.9006 7 12.999ZM3.499 16L3.501 16Q3.55015 16 3.59835 16.0096Q3.64655 16.0192 3.69196 16.038Q3.73736 16.0568 3.77823 16.0841Q3.81909 16.1114 3.85385 16.1462Q3.8886 16.1809 3.9159 16.2218Q3.94321 16.2626 3.96202 16.308Q3.98082 16.3534 3.99041 16.4016Q4 16.4499 4 16.499L4 21.501Q4 21.5501 3.99041 21.5983Q3.98082 21.6465 3.96202 21.692Q3.94321 21.7374 3.9159 21.7782Q3.8886 21.8191 3.85385 21.8538Q3.81909 21.8886 3.77823 21.9159Q3.73736 21.9432 3.69196 21.962Q3.64655 21.9808 3.59835 21.9904Q3.55015 22 3.501 22L3.499 22Q3.44985 22 3.40165 21.9904Q3.35345 21.9808 3.30804 21.962Q3.26263 21.9432 3.22177 21.9159Q3.18091 21.8886 3.14615 21.8538Q3.1114 21.8191 3.0841 21.7782Q3.05679 21.7374 3.03798 21.692Q3.01918 21.6465 3.00959 21.5983Q3 21.5501 3 21.501L3 16.499Q3 16.4499 3.00959 16.4016Q3.01918 16.3534 3.03798 16.308Q3.05679 16.2626 3.0841 16.2218Q3.1114 16.1809 3.14615 16.1462Q3.18091 16.1114 3.22177 16.0841Q3.26263 16.0568 3.30804 16.038Q3.35345 16.0192 3.40165 16.0096Q3.44985 16 3.499 16Z" transform="translate(23 0)" id="Combined-Shape-Copy" fill="#6E6969" fill-rule="evenodd" stroke="none" />
  <path d="M3.499 0L3.501 0Q3.55015 0 3.59835 0.00958814Q3.64655 0.0191763 3.69196 0.0379841Q3.73736 0.0567919 3.77823 0.0840966Q3.81909 0.111401 3.85385 0.146154Q3.8886 0.180906 3.9159 0.22177Q3.94321 0.262635 3.96202 0.308041Q3.98082 0.353447 3.99041 0.40165Q4 0.449852 4 0.499L4 10.501Q4 10.5501 3.99041 10.5983Q3.98082 10.6466 3.96202 10.692Q3.94321 10.7374 3.9159 10.7782Q3.8886 10.8191 3.85385 10.8538Q3.81909 10.8886 3.77823 10.9159Q3.73736 10.9432 3.69196 10.962Q3.64655 10.9808 3.59835 10.9904Q3.55015 11 3.501 11L3.499 11Q3.44985 11 3.40165 10.9904Q3.35345 10.9808 3.30804 10.962Q3.26263 10.9432 3.22177 10.9159Q3.18091 10.8886 3.14615 10.8538Q3.1114 10.8191 3.0841 10.7782Q3.05679 10.7374 3.03798 10.692Q3.01918 10.6466 3.00959 10.5983Q3 10.5501 3 10.501L3 0.499Q3 0.449852 3.00959 0.40165Q3.01918 0.353447 3.03798 0.308041Q3.05679 0.262635 3.0841 0.22177Q3.1114 0.180906 3.14615 0.146154Q3.18091 0.111401 3.22177 0.0840966Q3.26263 0.0567919 3.30804 0.0379841Q3.35345 0.0191763 3.40165 0.00958814Q3.44985 0 3.499 0ZM7 12.999L7 14.001Q7 14.0994 6.9808 14.1959Q6.96161 14.2924 6.92395 14.3833Q6.8863 14.4742 6.83164 14.556Q6.77697 14.6378 6.7074 14.7074Q6.63782 14.777 6.55601 14.8316Q6.4742 14.8863 6.3833 14.924Q6.2924 14.9616 6.19589 14.9808Q6.09939 15 6.001 15L0.999 15Q0.900607 15 0.804105 14.9808Q0.707602 14.9616 0.616699 14.924Q0.525796 14.8863 0.443985 14.8316Q0.362175 14.777 0.2926 14.7074Q0.223026 14.6378 0.168362 14.556Q0.113698 14.4742 0.0760443 14.3833Q0.038391 14.2924 0.0191955 14.1959Q0 14.0994 0 14.001L0 12.999Q0 12.9006 0.0191955 12.8041Q0.038391 12.7076 0.0760443 12.6167Q0.113698 12.5258 0.168362 12.444Q0.223026 12.3622 0.2926 12.2926Q0.362175 12.223 0.443985 12.1684Q0.525796 12.1137 0.616699 12.076Q0.707602 12.0384 0.804105 12.0192Q0.900607 12 0.999 12L6.001 12Q6.09939 12 6.19589 12.0192Q6.2924 12.0384 6.3833 12.076Q6.4742 12.1137 6.55601 12.1684Q6.63782 12.223 6.7074 12.2926Q6.77697 12.3622 6.83164 12.444Q6.8863 12.5258 6.92395 12.6167Q6.96161 12.7076 6.9808 12.8041Q7 12.9006 7 12.999ZM3.499 16L3.501 16Q3.55015 16 3.59835 16.0096Q3.64655 16.0192 3.69196 16.038Q3.73736 16.0568 3.77823 16.0841Q3.81909 16.1114 3.85385 16.1462Q3.8886 16.1809 3.9159 16.2218Q3.94321 16.2626 3.96202 16.308Q3.98082 16.3534 3.99041 16.4016Q4 16.4499 4 16.499L4 21.501Q4 21.5501 3.99041 21.5983Q3.98082 21.6465 3.96202 21.692Q3.94321 21.7374 3.9159 21.7782Q3.8886 21.8191 3.85385 21.8538Q3.81909 21.8886 3.77823 21.9159Q3.73736 21.9432 3.69196 21.962Q3.64655 21.9808 3.59835 21.9904Q3.55015 22 3.501 22L3.499 22Q3.44985 22 3.40165 21.9904Q3.35345 21.9808 3.30804 21.962Q3.26263 21.9432 3.22177 21.9159Q3.18091 21.8886 3.14615 21.8538Q3.1114 21.8191 3.0841 21.7782Q3.05679 21.7374 3.03798 21.692Q3.01918 21.6465 3.00959 21.5983Q3 21.5501 3 21.501L3 16.499Q3 16.4499 3.00959 16.4016Q3.01918 16.3534 3.03798 16.308Q3.05679 16.2626 3.0841 16.2218Q3.1114 16.1809 3.14615 16.1462Q3.18091 16.1114 3.22177 16.0841Q3.26263 16.0568 3.30804 16.038Q3.35345 16.0192 3.40165 16.0096Q3.44985 16 3.499 16Z" transform="matrix(-1 0 0 -1 19 22)" id="Combined-Shape-Copy-2" fill="#6E6969" fill-rule="evenodd" stroke="none" />
</svg>