<?xml version="1.0" encoding="utf-8"?>
<svg width="24px" height="17px" viewBox="0 0 24 17" version="1.1" xmlns:xlink="http://www.w3.org/1999/xlink" xmlns="http://www.w3.org/2000/svg">
  <desc>Created with Lunacy</desc>
  <path d="M24 1.501L24 1.499Q24 1.42536 23.9928 1.35207Q23.9856 1.27879 23.9712 1.20656Q23.9568 1.13433 23.9355 1.06386Q23.9141 0.993393 23.8859 0.925357Q23.8577 0.857322 23.823 0.792376Q23.7883 0.727431 23.7474 0.6662Q23.7065 0.60497 23.6597 0.548044Q23.613 0.491119 23.561 0.439047Q23.5089 0.386975 23.452 0.340257Q23.395 0.29354 23.3338 0.252627Q23.2726 0.211714 23.2076 0.177Q23.1427 0.142286 23.0746 0.114105Q23.0066 0.0859233 22.9361 0.0645464Q22.8657 0.0431695 22.7934 0.0288029Q22.7212 0.0144362 22.6479 0.00721809Q22.5746 0 22.501 0L1.499 0Q1.42536 0 1.35207 0.00721809Q1.27879 0.0144362 1.20656 0.0288029Q1.13433 0.0431695 1.06386 0.0645464Q0.993393 0.0859233 0.925357 0.114105Q0.857322 0.142286 0.792376 0.177Q0.727431 0.211714 0.6662 0.252627Q0.60497 0.29354 0.548044 0.340257Q0.491119 0.386975 0.439047 0.439047Q0.386975 0.491119 0.340257 0.548044Q0.29354 0.60497 0.252627 0.6662Q0.211714 0.727431 0.177 0.792376Q0.142286 0.857322 0.114105 0.925357Q0.0859233 0.993393 0.0645464 1.06386Q0.0431695 1.13433 0.0288029 1.20656Q0.0144362 1.27879 0.00721809 1.35207Q0 1.42536 0 1.499L0 1.501Q0 1.57464 0.00721809 1.64793Q0.0144362 1.72121 0.0288029 1.79344Q0.0431695 1.86567 0.0645464 1.93614Q0.0859233 2.00661 0.114105 2.07464Q0.142286 2.14268 0.177 2.20762Q0.211714 2.27257 0.252627 2.3338Q0.29354 2.39503 0.340257 2.45196Q0.386975 2.50888 0.439047 2.56095Q0.491119 2.61303 0.548044 2.65974Q0.60497 2.70646 0.6662 2.74737Q0.727431 2.78829 0.792376 2.823Q0.857322 2.85771 0.925357 2.8859Q0.993393 2.91408 1.06386 2.93545Q1.13433 2.95683 1.20656 2.9712Q1.27879 2.98556 1.35207 2.99278Q1.42536 3 1.499 3L22.501 3Q22.5746 3 22.6479 2.99278Q22.7212 2.98556 22.7934 2.9712Q22.8657 2.95683 22.9361 2.93545Q23.0066 2.91408 23.0746 2.8859Q23.1427 2.85771 23.2076 2.823Q23.2726 2.78829 23.3338 2.74737Q23.395 2.70646 23.452 2.65974Q23.5089 2.61303 23.561 2.56095Q23.613 2.50888 23.6597 2.45196Q23.7065 2.39503 23.7474 2.3338Q23.7883 2.27257 23.823 2.20762Q23.8577 2.14268 23.8859 2.07464Q23.9141 2.00661 23.9354 1.93614Q23.9568 1.86567 23.9712 1.79344Q23.9856 1.72121 23.9928 1.64793Q24 1.57464 24 1.501ZM24 8.499L24 8.501Q24 8.57464 23.9928 8.64793Q23.9856 8.72121 23.9712 8.79344Q23.9568 8.86567 23.9355 8.93614Q23.9141 9.00661 23.8859 9.07464Q23.8577 9.14268 23.823 9.20762Q23.7883 9.27257 23.7474 9.3338Q23.7065 9.39503 23.6597 9.45195Q23.613 9.50888 23.561 9.56095Q23.5089 9.61303 23.452 9.65974Q23.395 9.70646 23.3338 9.74737Q23.2726 9.78829 23.2076 9.823Q23.1427 9.85771 23.0746 9.88589Q23.0066 9.91408 22.9361 9.93545Q22.8657 9.95683 22.7934 9.9712Q22.7212 9.98556 22.6479 9.99278Q22.5746 10 22.501 10L1.499 10Q1.42536 10 1.35207 9.99278Q1.27879 9.98556 1.20656 9.9712Q1.13433 9.95683 1.06386 9.93545Q0.993393 9.91408 0.925357 9.88589Q0.857322 9.85771 0.792376 9.823Q0.727431 9.78828 0.6662 9.74737Q0.60497 9.70646 0.548044 9.65974Q0.491119 9.61303 0.439047 9.56095Q0.386975 9.50888 0.340257 9.45195Q0.29354 9.39503 0.252627 9.3338Q0.211714 9.27257 0.177 9.20762Q0.142286 9.14268 0.114105 9.07464Q0.0859233 9.00661 0.0645464 8.93614Q0.0431695 8.86567 0.0288029 8.79344Q0.0144362 8.72121 0.00721809 8.64793Q0 8.57464 0 8.501L0 8.499Q0 8.42536 0.00721809 8.35207Q0.0144362 8.27878 0.0288029 8.20656Q0.0431695 8.13433 0.0645464 8.06386Q0.0859233 7.99339 0.114105 7.92536Q0.142286 7.85732 0.177 7.79238Q0.211714 7.72743 0.252627 7.6662Q0.29354 7.60497 0.340257 7.54804Q0.386975 7.49112 0.439047 7.43905Q0.491119 7.38697 0.548044 7.34026Q0.60497 7.29354 0.6662 7.25263Q0.727431 7.21171 0.792376 7.177Q0.857322 7.14229 0.925357 7.1141Q0.993393 7.08592 1.06386 7.06455Q1.13433 7.04317 1.20656 7.0288Q1.27879 7.01444 1.35207 7.00722Q1.42536 7 1.499 7L22.501 7Q22.5746 7 22.6479 7.00722Q22.7212 7.01444 22.7934 7.0288Q22.8657 7.04317 22.9361 7.06455Q23.0066 7.08592 23.0746 7.1141Q23.1427 7.14229 23.2076 7.177Q23.2726 7.21171 23.3338 7.25263Q23.395 7.29354 23.452 7.34026Q23.5089 7.38697 23.561 7.43905Q23.613 7.49112 23.6597 7.54804Q23.7065 7.60497 23.7474 7.6662Q23.7883 7.72743 23.823 7.79238Q23.8577 7.85732 23.8859 7.92536Q23.9141 7.99339 23.9354 8.06386Q23.9568 8.13433 23.9712 8.20656Q23.9856 8.27878 23.9928 8.35207Q24 8.42536 24 8.499ZM24 15.499L24 15.501Q24 15.5746 23.9928 15.6479Q23.9856 15.7212 23.9712 15.7934Q23.9568 15.8657 23.9355 15.9361Q23.9141 16.0066 23.8859 16.0746Q23.8577 16.1427 23.823 16.2076Q23.7883 16.2726 23.7474 16.3338Q23.7065 16.395 23.6597 16.452Q23.613 16.5089 23.561 16.561Q23.5089 16.613 23.452 16.6597Q23.395 16.7065 23.3338 16.7474Q23.2726 16.7883 23.2076 16.823Q23.1427 16.8577 23.0746 16.8859Q23.0066 16.9141 22.9361 16.9355Q22.8657 16.9568 22.7934 16.9712Q22.7212 16.9856 22.6479 16.9928Q22.5746 17 22.501 17L1.499 17Q1.42536 17 1.35207 16.9928Q1.27879 16.9856 1.20656 16.9712Q1.13433 16.9568 1.06386 16.9355Q0.993393 16.9141 0.925357 16.8859Q0.857322 16.8577 0.792376 16.823Q0.727431 16.7883 0.6662 16.7474Q0.60497 16.7065 0.548044 16.6597Q0.491119 16.613 0.439047 16.561Q0.386975 16.5089 0.340257 16.452Q0.29354 16.395 0.252627 16.3338Q0.211714 16.2726 0.177 16.2076Q0.142286 16.1427 0.114105 16.0746Q0.0859233 16.0066 0.0645464 15.9361Q0.0431695 15.8657 0.0288029 15.7934Q0.0144362 15.7212 0.00721809 15.6479Q0 15.5746 0 15.501L0 15.499Q0 15.4254 0.00721809 15.3521Q0.0144362 15.2788 0.0288029 15.2066Q0.0431695 15.1343 0.0645464 15.0639Q0.0859233 14.9934 0.114105 14.9254Q0.142286 14.8573 0.177 14.7924Q0.211714 14.7274 0.252627 14.6662Q0.29354 14.605 0.340257 14.548Q0.386975 14.4911 0.439047 14.439Q0.491119 14.387 0.548044 14.3403Q0.60497 14.2935 0.6662 14.2526Q0.727431 14.2117 0.792376 14.177Q0.857322 14.1423 0.925357 14.1141Q0.993393 14.0859 1.06386 14.0645Q1.13433 14.0432 1.20656 14.0288Q1.27879 14.0144 1.35207 14.0072Q1.42536 14 1.499 14L22.501 14Q22.5746 14 22.6479 14.0072Q22.7212 14.0144 22.7934 14.0288Q22.8657 14.0432 22.9361 14.0645Q23.0066 14.0859 23.0746 14.1141Q23.1427 14.1423 23.2076 14.177Q23.2726 14.2117 23.3338 14.2526Q23.395 14.2935 23.452 14.3403Q23.5089 14.387 23.561 14.439Q23.613 14.4911 23.6597 14.548Q23.7065 14.605 23.7474 14.6662Q23.7883 14.7274 23.823 14.7924Q23.8577 14.8573 23.8859 14.9254Q23.9141 14.9934 23.9354 15.0639Q23.9568 15.1343 23.9712 15.2066Q23.9856 15.2788 23.9928 15.3521Q24 15.4254 24 15.499Z" id="Combined-Shape" fill="#6E6969" fill-rule="evenodd" stroke="none" />
</svg>