<?xml version="1.0" encoding="utf-8"?>
<svg width="20px" height="20px" viewBox="0 0 20 20" version="1.1" xmlns:xlink="http://www.w3.org/1999/xlink" xmlns="http://www.w3.org/2000/svg">
  <desc>Created with Lunacy</desc>
  <g id="Icon-/-Minus">
    <path d="M0.999 0L1.001 0Q1.09939 0 1.1959 0.0191955Q1.2924 0.038391 1.3833 0.0760443Q1.4742 0.113698 1.55601 0.168362Q1.63783 0.223026 1.7074 0.2926Q1.77697 0.362175 1.83164 0.443985Q1.8863 0.525796 1.92396 0.616699Q1.96161 0.707602 1.9808 0.804105Q2 0.900607 2 0.999L2 19.001Q2 19.0994 1.9808 19.1959Q1.96161 19.2924 1.92396 19.3833Q1.8863 19.4742 1.83164 19.556Q1.77697 19.6378 1.7074 19.7074Q1.63783 19.777 1.55601 19.8316Q1.4742 19.8863 1.3833 19.924Q1.2924 19.9616 1.1959 19.9808Q1.09939 20 1.001 20L0.999 20Q0.900607 20 0.804105 19.9808Q0.707602 19.9616 0.616699 19.924Q0.525796 19.8863 0.443985 19.8316Q0.362175 19.777 0.2926 19.7074Q0.223026 19.6378 0.168362 19.556Q0.113698 19.4742 0.0760443 19.3833Q0.038391 19.2924 0.0191955 19.1959Q0 19.0994 0 19.001L0 0.999Q0 0.900607 0.0191955 0.804105Q0.038391 0.707602 0.0760443 0.616699Q0.113698 0.525796 0.168362 0.443985Q0.223026 0.362175 0.2926 0.2926Q0.362175 0.223026 0.443985 0.168362Q0.525796 0.113698 0.616699 0.0760443Q0.707602 0.038391 0.804105 0.0191955Q0.900607 0 0.999 0Z" transform="matrix(4.371139E-08 1 1 -4.371139E-08 0 8.999999)" id="Rectangle" fill="#6E6969" stroke="none" />
  </g>
</svg>