<?xml version="1.0" encoding="utf-8"?>
<svg width="20px" height="20px" viewBox="0 0 20 20" version="1.1" xmlns:xlink="http://www.w3.org/1999/xlink" xmlns="http://www.w3.org/2000/svg">
  <desc>Created with Lunacy</desc>
  <g id="Icon-/-Minus">
    <path d="M9.999 0L10.001 0Q10.0994 0 10.1959 0.0191955Q10.2924 0.038391 10.3833 0.0760443Q10.4742 0.113698 10.556 0.168362Q10.6378 0.223026 10.7074 0.2926Q10.777 0.362175 10.8316 0.443985Q10.8863 0.525796 10.924 0.616699Q10.9616 0.707602 10.9808 0.804105Q11 0.900607 11 0.999L11 9L19.001 9Q19.0994 9 19.1959 9.01919Q19.2924 9.03839 19.3833 9.07604Q19.4742 9.1137 19.556 9.16836Q19.6378 9.22302 19.7074 9.2926Q19.777 9.36217 19.8316 9.44398Q19.8863 9.52579 19.924 9.6167Q19.9616 9.7076 19.9808 9.8041Q20 9.90061 20 9.999L20 10.001Q20 10.0994 19.9808 10.1959Q19.9616 10.2924 19.924 10.3833Q19.8863 10.4742 19.8316 10.556Q19.777 10.6378 19.7074 10.7074Q19.6378 10.777 19.556 10.8316Q19.4742 10.8863 19.3833 10.924Q19.2924 10.9616 19.1959 10.9808Q19.0994 11 19.001 11L11 11L11 19.001Q11 19.0994 10.9808 19.1959Q10.9616 19.2924 10.924 19.3833Q10.8863 19.4742 10.8316 19.556Q10.777 19.6378 10.7074 19.7074Q10.6378 19.777 10.556 19.8316Q10.4742 19.8863 10.3833 19.924Q10.2924 19.9616 10.1959 19.9808Q10.0994 20 10.001 20L9.999 20Q9.90061 20 9.8041 19.9808Q9.7076 19.9616 9.6167 19.924Q9.52579 19.8863 9.44398 19.8316Q9.36217 19.777 9.2926 19.7074Q9.22303 19.6378 9.16836 19.556Q9.1137 19.4742 9.07604 19.3833Q9.03839 19.2924 9.01919 19.1959Q9 19.0994 9 19.001L9 11L0.999 11Q0.900607 11 0.804105 10.9808Q0.707602 10.9616 0.616699 10.924Q0.525796 10.8863 0.443985 10.8316Q0.362175 10.777 0.2926 10.7074Q0.223026 10.6378 0.168362 10.556Q0.113698 10.4742 0.0760443 10.3833Q0.038391 10.2924 0.0191955 10.1959Q0 10.0994 0 10.001L0 9.999Q0 9.90061 0.0191955 9.8041Q0.038391 9.7076 0.0760443 9.6167Q0.113698 9.52579 0.168362 9.44398Q0.223026 9.36217 0.2926 9.2926Q0.362175 9.22302 0.443985 9.16836Q0.525796 9.1137 0.616699 9.07604Q0.707602 9.03839 0.804105 9.01919Q0.900607 9 0.999 9L9 9L9 0.999Q9 0.900607 9.01919 0.804105Q9.03839 0.707602 9.07604 0.616699Q9.1137 0.525796 9.16836 0.443985Q9.22303 0.362175 9.2926 0.2926Q9.36217 0.223026 9.44398 0.168362Q9.52579 0.113698 9.6167 0.0760443Q9.7076 0.038391 9.8041 0.0191955Q9.90061 0 9.999 0Z" id="Combined-Shape" fill="#6E6969" fill-rule="evenodd" stroke="none" />
  </g>
</svg>