<?xml version="1.0" encoding="utf-8"?>
<svg width="26px" height="30px" viewBox="0 0 26 30" version="1.1" xmlns:xlink="http://www.w3.org/1999/xlink" xmlns="http://www.w3.org/2000/svg">
  <desc>Created with Lunacy</desc>
  <path d="M3.9209 0L0.625 0C0.28125 0 0 0.28125 0 0.625C0 0.96875 0.28125 1.25 0.625 1.25L3.9209 1.25C4.26465 1.25 4.5459 0.96875 4.5459 0.625C4.5459 0.28125 4.26465 0 3.9209 0Z" transform="translate(16.25 8.75)" id="Path" fill="#6E6969" stroke="none" />
  <path d="M18.75 3.75L22.5 3.75C24.2188 3.75 25.625 5.15625 25.625 6.875L25.625 8.125C25.625 9.0625 24.9063 9.84375 24 9.96875L22.4063 27.125C22.25 28.75 20.9063 29.9688 19.2813 29.9688L6.34375 29.9688C4.71875 29.9688 3.375 28.75 3.21875 27.125L1.625 9.96875C0.71875 9.84375 0 9.0625 0 8.125L0 6.875C0 5.15625 1.40625 3.75 3.125 3.75L6.5625 3.75C6.5625 1.6875 8.25 0 10.3125 0L15 0C17.0625 0 18.75 1.6875 18.75 3.75ZM10.3125 1.25L15 1.25C16.375 1.25 17.5 2.375 17.5 3.75L7.8125 3.75C7.8125 2.375 8.9375 1.25 10.3125 1.25ZM23.75 8.75C24.0938 8.75 24.375 8.46875 24.375 8.125L24.375 6.875C24.375 5.84375 23.5313 5 22.5 5L3.125 5C2.09375 5 1.25 5.84375 1.25 6.875L1.25 8.125C1.25 8.46875 1.53125 8.75 1.875 8.75L14.0625 8.75C14.4063 8.75 14.6875 9.03125 14.6875 9.375C14.6875 9.71875 14.4063 10 14.0625 10L2.875 10L4.46875 27.0313C4.5625 28 5.375 28.75 6.34375 28.75L19.2813 28.75C20.25 28.75 21.0625 28 21.1563 27.0313L22.8125 9.3125C22.8438 9 23.125 8.75 23.4375 8.75L23.75 8.75Z" id="Shape" fill="#6E6969" fill-rule="evenodd" stroke="none" />
  <path d="M0.625 0C0.28125 0 0 0.28125 0 0.625L0 12.5C0 12.8438 0.28125 13.125 0.625 13.125C0.96875 13.125 1.25 12.8438 1.25 12.5L1.25 0.625C1.25 0.28125 0.96875 0 0.625 0Z" transform="translate(7.1875 12.5)" id="Path" fill="#6E6969" stroke="none" />
  <path d="M0.625 0C0.28125 0 0 0.28125 0 0.625L0 12.5C0 12.8438 0.28125 13.125 0.625 13.125C0.96875 13.125 1.25 12.8438 1.25 12.5L1.25 0.625C1.25 0.28125 0.96875 0 0.625 0Z" transform="translate(12.1875 12.5)" id="Path" fill="#6E6969" stroke="none" />
  <path d="M0.625 0C0.28125 0 0 0.28125 0 0.625L0 12.5C0 12.8438 0.28125 13.125 0.625 13.125C0.96875 13.125 1.25 12.8438 1.25 12.5L1.25 0.625C1.25 0.28125 0.96875 0 0.625 0Z" transform="translate(17.1875 12.5)" id="Path" fill="#6E6969" stroke="none" />
</svg>