<?xml version="1.0" encoding="utf-8"?>
<svg width="7px" height="12px" viewBox="0 0 7 12" version="1.1" xmlns:xlink="http://www.w3.org/1999/xlink" xmlns="http://www.w3.org/2000/svg">
  <desc>Created with Lunacy</desc>
  <g id="Group" transform="matrix(-1 0 0 1 6.657715 0)">
    <path d="M2.07823e-13 0L1.07559 0.032107L1.30037 7.56227Q1.30191 7.61397 1.29296 7.66492Q1.284 7.71586 1.26492 7.76394Q1.24584 7.81202 1.21743 7.85524Q1.18901 7.89847 1.15243 7.93504Q1.11586 7.97162 1.07263 8.00004Q1.02941 8.02845 0.981333 8.04753Q0.933253 8.06661 0.882307 8.07557Q0.831361 8.08452 0.779657 8.08298L0.777653 8.08292Q0.72367 8.0813 0.670949 8.06958Q0.618228 8.05786 0.568646 8.03646Q0.519064 8.01505 0.474383 7.98471Q0.429703 7.95437 0.391514 7.91618Q0.353325 7.87799 0.322986 7.83331Q0.292647 7.78863 0.271237 7.73905Q0.249827 7.68946 0.238108 7.63674Q0.226389 7.58402 0.224777 7.53004L2.07823e-13 0Z" transform="matrix(0.7071068 -0.7071068 0.7071068 0.7071068 0 5.726868)" id="Rectangle" fill="#424242" stroke="none" />
    <path d="M3.19655e-13 0L7.53004 0.224777Q7.58402 0.226389 7.63674 0.238108Q7.68946 0.249827 7.73905 0.271237Q7.78863 0.292647 7.83331 0.322986Q7.87799 0.353325 7.91618 0.391514Q7.95437 0.429703 7.98471 0.474383Q8.01505 0.519064 8.03646 0.568646Q8.05786 0.618229 8.06958 0.670949Q8.0813 0.72367 8.08292 0.777653L8.08298 0.779657Q8.08452 0.831361 8.07556 0.882307Q8.06661 0.933253 8.04753 0.981333Q8.02845 1.02941 8.00004 1.07263Q7.97162 1.11586 7.93504 1.15243Q7.89847 1.18901 7.85524 1.21743Q7.81202 1.24584 7.76394 1.26492Q7.71586 1.284 7.66492 1.29296Q7.61397 1.30191 7.56227 1.30037L0.032107 1.07559L3.19655e-13 0Z" transform="matrix(0.7071068 -0.7071068 0.7071068 0.7071068 0 5.726868)" id="Rectangle" fill="#424242" stroke="none" />
  </g>
</svg>