<?xml version="1.0" encoding="utf-8"?>
<svg width="26px" height="30px" viewBox="0 0 26 30" version="1.1" xmlns:xlink="http://www.w3.org/1999/xlink" xmlns="http://www.w3.org/2000/svg">
  <desc>Created with Lunacy</desc>
  <path d="M19.0292 9.326C19.0292 9.657 18.7612 9.925 18.4302 9.925C18.0992 9.925 17.8312 9.657 17.8322 9.326L17.8322 4.962C17.8322 2.886 15.4152 1.197 12.4462 1.197C9.46117 1.197 7.04417 2.886 7.04417 4.962L7.04417 9.326C7.04417 9.657 6.77617 9.925 6.44617 9.925C6.11517 9.925 5.84717 9.657 5.84717 9.326L5.84717 4.962C5.84717 2.226 8.80017 0 12.4302 0C16.0762 0 19.0292 2.226 19.0292 4.962L19.0292 9.326ZM17.0058 7.97977C17.0058 8.31077 16.7368 8.57878 16.4068 8.57878L8.18884 8.57878C7.85884 8.57878 7.58984 8.31077 7.58984 7.97977C7.58984 7.64878 7.85884 7.38177 8.18884 7.38177L16.4068 7.38177C16.7368 7.38177 17.0058 7.64978 17.0058 7.97977ZM24.65 7.38202L20.573 7.38202C20.243 7.38202 19.974 7.65002 19.974 7.98102C19.974 8.31102 20.243 8.57902 20.573 8.57902L24.051 8.57902L24.051 28.803L1.196 28.803L1.196 8.57902L4.476 8.57902C4.806 8.57902 5.074 8.31102 5.074 7.98002C5.074 7.65002 4.806 7.38202 4.476 7.38202L0.598 7.38202C0.268 7.38202 0 7.64902 0 7.98002L0 29.402C0 29.732 0.268 30 0.598 30L24.65 30C24.98 30 25.249 29.733 25.249 29.402L25.249 7.98002C25.249 7.65002 24.981 7.38202 24.65 7.38202ZM19.9713 10.8645C19.9713 11.7145 19.2803 12.4045 18.4303 12.4045C17.5813 12.4045 16.8903 11.7135 16.8903 10.8645C16.8903 10.5335 17.1583 10.2665 17.4893 10.2665C17.8193 10.2665 18.0863 10.5345 18.0863 10.8645C18.0863 11.0535 18.2413 11.2075 18.4303 11.2075C18.6203 11.2075 18.7743 11.0535 18.7743 10.8645C18.7743 10.5335 19.0423 10.2665 19.3723 10.2665C19.7023 10.2665 19.9713 10.5345 19.9713 10.8645ZM4.90527 10.8649C4.90527 11.7139 5.59627 12.4049 6.44627 12.4049C7.29527 12.4049 7.98627 11.7139 7.98627 10.8649C7.98627 10.5339 7.71827 10.2669 7.38727 10.2669C7.05727 10.2669 6.78927 10.5339 6.78927 10.8649C6.78927 11.0539 6.63527 11.2079 6.44627 11.2079C6.25627 11.2079 6.10227 11.0539 6.10227 10.8649C6.10227 10.5339 5.83427 10.2669 5.50327 10.2669C5.17327 10.2669 4.90527 10.5339 4.90527 10.8649Z" id="Combined-Shape" fill="#6E6969" fill-rule="evenodd" stroke="none" />
  <path d="M6.49902 0L6.50102 0Q6.56495 0 6.62764 0.0124703Q6.69033 0.0249407 6.74939 0.0494022Q6.80844 0.0738636 6.86159 0.109376Q6.91474 0.144889 6.95994 0.190088Q7.00513 0.235287 7.04065 0.288435Q7.07616 0.341583 7.10062 0.400638Q7.12508 0.459694 7.13755 0.522386Q7.15002 0.585079 7.15002 0.649L7.15002 5.84998L12.351 5.84998Q12.4149 5.84998 12.4776 5.86245Q12.5403 5.87492 12.5994 5.89938Q12.6584 5.92384 12.7116 5.95935Q12.7647 5.99486 12.8099 6.04006Q12.8551 6.08526 12.8906 6.13841Q12.9261 6.19156 12.9506 6.25061Q12.9751 6.30967 12.9875 6.37236Q13 6.43505 13 6.49897L13 6.50097Q13 6.5649 12.9875 6.62759Q12.9751 6.69028 12.9506 6.74934Q12.9261 6.80839 12.8906 6.86154Q12.8551 6.91469 12.8099 6.95989Q12.7647 7.00509 12.7116 7.0406Q12.6584 7.07611 12.5994 7.10057Q12.5403 7.12503 12.4776 7.1375Q12.4149 7.14997 12.351 7.14997L7.15002 7.14997L7.15002 12.351Q7.15002 12.4149 7.13755 12.4776Q7.12508 12.5403 7.10062 12.5994Q7.07616 12.6584 7.04065 12.7116Q7.00513 12.7647 6.95994 12.8099Q6.91474 12.8551 6.86159 12.8906Q6.80844 12.9261 6.74939 12.9506Q6.69033 12.9751 6.62764 12.9875Q6.56495 13 6.50102 13L6.49902 13Q6.4351 13 6.37241 12.9875Q6.30972 12.9751 6.25066 12.9506Q6.19161 12.9261 6.13846 12.8906Q6.08531 12.8551 6.04011 12.8099Q5.99491 12.7647 5.9594 12.7116Q5.92389 12.6584 5.89943 12.5994Q5.87496 12.5403 5.86249 12.4776Q5.85002 12.4149 5.85002 12.351L5.85002 7.14998L0.649 7.14998Q0.585079 7.14997 0.522386 7.1375Q0.459694 7.12503 0.400638 7.10057Q0.341583 7.07611 0.288435 7.0406Q0.235287 7.00509 0.190088 6.95989Q0.144889 6.91469 0.109376 6.86154Q0.0738636 6.80839 0.0494022 6.74934Q0.0249407 6.69028 0.0124703 6.62759Q0 6.5649 0 6.50098L0 6.49898Q0 6.43505 0.0124703 6.37236Q0.0249407 6.30967 0.0494022 6.25061Q0.0738636 6.19156 0.109376 6.13841Q0.144889 6.08526 0.190088 6.04006Q0.235287 5.99486 0.288435 5.95935Q0.341583 5.92384 0.400638 5.89938Q0.459694 5.87492 0.522386 5.86245Q0.585079 5.84998 0.649 5.84998L5.85002 5.84998L5.85002 0.649Q5.85002 0.585079 5.86249 0.522386Q5.87496 0.459694 5.89943 0.400638Q5.92389 0.341583 5.9594 0.288435Q5.99491 0.235287 6.04011 0.190088Q6.08531 0.144889 6.13846 0.109376Q6.19161 0.0738636 6.25066 0.0494022Q6.30972 0.0249407 6.37241 0.0124703Q6.4351 0 6.49902 0Z" transform="translate(6 13)" id="Combined-Shape" fill="#6E6969" fill-rule="evenodd" stroke="none" />
</svg>