<?xml version="1.0" encoding="utf-8"?>
<svg width="26px" height="30px" viewBox="0 0 26 30" version="1.1" xmlns:xlink="http://www.w3.org/1999/xlink" xmlns="http://www.w3.org/2000/svg">
  <desc>Created with Lunacy</desc>
  <path d="M19.0292 9.326C19.0292 9.657 18.7612 9.925 18.4302 9.925C18.0992 9.925 17.8312 9.657 17.8322 9.326L17.8322 4.962C17.8322 2.886 15.4152 1.197 12.4462 1.197C9.46117 1.197 7.04417 2.886 7.04417 4.962L7.04417 9.326C7.04417 9.657 6.77617 9.925 6.44617 9.925C6.11517 9.925 5.84717 9.657 5.84717 9.326L5.84717 4.962C5.84717 2.226 8.80017 0 12.4302 0C16.0762 0 19.0292 2.226 19.0292 4.962L19.0292 9.326ZM17.0058 7.97977C17.0058 8.31077 16.7368 8.57878 16.4068 8.57878L8.18884 8.57878C7.85884 8.57878 7.58984 8.31077 7.58984 7.97977C7.58984 7.64878 7.85884 7.38177 8.18884 7.38177L16.4068 7.38177C16.7368 7.38177 17.0058 7.64978 17.0058 7.97977ZM24.65 7.38202L20.573 7.38202C20.243 7.38202 19.974 7.65002 19.974 7.98102C19.974 8.31102 20.243 8.57902 20.573 8.57902L24.051 8.57902L24.051 28.803L1.196 28.803L1.196 8.57902L4.476 8.57902C4.806 8.57902 5.074 8.31102 5.074 7.98002C5.074 7.65002 4.806 7.38202 4.476 7.38202L0.598 7.38202C0.268 7.38202 0 7.64902 0 7.98002L0 29.402C0 29.732 0.268 30 0.598 30L24.65 30C24.98 30 25.249 29.733 25.249 29.402L25.249 7.98002C25.249 7.65002 24.981 7.38202 24.65 7.38202ZM19.9713 10.8645C19.9713 11.7145 19.2803 12.4045 18.4303 12.4045C17.5813 12.4045 16.8903 11.7135 16.8903 10.8645C16.8903 10.5335 17.1583 10.2665 17.4893 10.2665C17.8193 10.2665 18.0863 10.5345 18.0863 10.8645C18.0863 11.0535 18.2413 11.2075 18.4303 11.2075C18.6203 11.2075 18.7743 11.0535 18.7743 10.8645C18.7743 10.5335 19.0423 10.2665 19.3723 10.2665C19.7023 10.2665 19.9713 10.5345 19.9713 10.8645ZM4.90527 10.8649C4.90527 11.7139 5.59627 12.4049 6.44627 12.4049C7.29527 12.4049 7.98627 11.7139 7.98627 10.8649C7.98627 10.5339 7.71827 10.2669 7.38727 10.2669C7.05727 10.2669 6.78927 10.5339 6.78927 10.8649C6.78927 11.0539 6.63527 11.2079 6.44627 11.2079C6.25627 11.2079 6.10227 11.0539 6.10227 10.8649C6.10227 10.5339 5.83427 10.2669 5.50327 10.2669C5.17327 10.2669 4.90527 10.5339 4.90527 10.8649Z" id="Combined-Shape" fill="#C0A172" fill-rule="evenodd" stroke="none" />
</svg>