<?xml version="1.0" encoding="utf-8"?>
<svg width="22px" height="22px" viewBox="0 0 22 22" version="1.1" xmlns:xlink="http://www.w3.org/1999/xlink" xmlns="http://www.w3.org/2000/svg">
  <desc>Created with Lunacy</desc>
  <path d="M11 22C4.97619 22 0 17.0238 0 11C0 4.97619 4.96774 0 10.9916 0C17.0154 0 22 4.97619 22 11C22 17.0238 17.0238 22 11 22Z" id="Path" fill="#C0A172" stroke="none" />
  <path d="M4.2417 10.5088C4.54883 10.5088 4.81445 10.3677 5.01367 10.0605L10.5918 1.31982C10.7163 1.13721 10.8242 0.913086 10.8242 0.713867C10.8242 0.273926 10.4341 0 10.0273 0C9.78662 0 9.5459 0.141113 9.36328 0.42334L4.2002 8.63281L1.45264 5.18799C1.23682 4.91406 1.0127 4.81445 0.74707 4.81445C0.340332 4.81445 0 5.13818 0 5.57813C0 5.78564 0.0830078 6.00977 0.224121 6.18408L3.42822 10.0688C3.68555 10.3843 3.93457 10.5088 4.2417 10.5088Z" transform="translate(5 5)" id="Path" fill="#FFFFFF" stroke="none" />
</svg>