<?xml version="1.0" encoding="utf-8"?>
<svg width="123px" height="26px" viewBox="0 0 123 26" version="1.1" xmlns:xlink="http://www.w3.org/1999/xlink" xmlns="http://www.w3.org/2000/svg">
  <desc>Created with Lunacy</desc>
  <path d="M2.89491 19.5846C1.31474 17.9505 0.322772 15.8336 0.076201 13.5692C-0.200071 11.3082 0.279516 9.01905 1.4396 7.06153C2.86918 4.71315 5.2677 3.12799 7.98085 2.73845C10.7014 2.49139 13.3904 3.47236 15.3187 5.41537C18.5605 8.77599 19.186 13.8898 16.8506 17.9384C15.4377 20.3266 13.0074 21.9272 10.2634 22.2769C7.52703 22.5542 4.81414 21.5629 2.89491 19.5846ZM3.69164 13.1385C3.41463 11.4111 3.41463 9.65041 3.69164 7.92308C4.00499 5.60623 5.7559 3.74876 8.04227 3.30769C10.3693 3.20319 12.5028 4.60271 13.3427 6.78462C14.0134 8.40117 14.422 10.1152 14.5529 11.8615C14.8296 13.5837 14.8296 15.3393 14.5529 17.0615C14.2307 19.3741 12.4839 21.2272 10.2023 21.6769C7.8582 21.7771 5.71724 20.3478 4.90185 18.1385C4.22735 16.5285 3.81859 14.8189 3.69164 13.0769M36.7653 0.553833L21.4462 1.64614L21.4462 2.19999C22.2221 2.07029 23.0188 2.21724 23.6981 2.61537C24.1256 3.00956 24.3605 3.57136 24.3415 4.15383C24.4794 6.01537 24.3415 9.29229 24.3415 10.8308C24.173 16.5538 23.836 17.9231 23.453 18.7077C23.133 19.5387 22.3484 20.0964 21.4616 20.1231L20.3433 20.2154L20.4352 26L21.2471 26C21.4052 24.9827 21.7205 23.9965 22.1816 23.0769C22.8838 21.5425 24.3644 20.5159 26.042 20.4L32.0624 20C33.3429 19.7707 34.6619 20.0522 35.7389 20.7846C37.035 21.753 37.9426 23.1557 38.2972 24.7384L39.1091 24.7384L38.4657 18.9846L35.8921 19.1692L34.5747 1.27691L36.7653 1.12306L36.7653 0.553833ZM32.6294 19.3385L23.438 20C24.021 19.401 24.3969 18.6298 24.5103 17.8C24.8372 15.5117 25.0112 13.204 25.0312 10.8923C25.0312 9.98461 25.0312 6.46153 25.0312 5.44614C24.8864 4.40789 25.1502 3.35386 25.7665 2.50768C26.6852 1.93812 27.7513 1.65441 28.8303 1.6923L31.3426 1.53845L32.6294 19.3385ZM40.5186 0.307692L40.5186 0.876923L42.5254 0.876923L50.1849 16.5077C49.924 16.9946 49.6216 17.4579 49.2811 17.8923C48.7154 18.5332 47.9251 18.9301 47.0751 19C46.0028 19 45.5432 18.4154 45.5432 18.0462C45.5432 17.6769 46.2939 17.2923 46.7381 16.6769C46.9892 16.3269 47.1281 15.9083 47.1364 15.4769C47.0319 14.5335 46.1931 13.8486 45.2522 13.9385C44.7013 13.9531 44.181 14.1964 43.8153 14.6103C43.4495 15.0243 43.2709 15.572 43.3219 16.1231C43.3239 17.1126 43.7751 18.0472 44.5475 18.6615C45.3178 19.2952 46.2951 19.6187 47.2896 19.5692C48.1084 19.5658 48.8918 19.2334 49.4649 18.6462C50.1762 17.9007 50.761 17.0432 51.196 16.1077C51.6902 15.1721 52.1251 14.2061 52.4981 13.2154L56.3738 2.50769C56.714 1.3789 57.7426 0.601059 58.9168 0.584615L58.9168 0L53.9994 0.0769231L53.9994 0.661539L54.413 0.661539C54.7385 0.622724 55.0654 0.721715 55.3154 0.934769C55.5653 1.14782 55.7157 1.45572 55.7304 1.78462C55.6871 2.39964 55.5582 3.00553 55.3474 3.58462L51.9466 12.8154L46.0487 0.784615L48.4845 0.784615L48.4845 0.169231L40.5186 0.307692ZM62.0881 0L62.0881 0.584615L64.34 0.615385L64.003 18.4615L61.7817 18.4615L61.7817 19.0462L70.9732 19.2C73.0279 19.382 75.0813 18.8378 76.7791 17.6615C77.795 16.785 78.368 15.4986 78.3417 14.1538C78.3686 12.4242 77.3517 10.8497 75.7681 10.1692C74.515 9.56016 73.1773 9.14519 71.8004 8.93846L71.8004 8.78461C73.1677 8.70439 74.4962 8.29832 75.6762 7.6C76.833 7.01243 77.5661 5.825 77.5757 4.52308C77.5927 3.28286 77.0246 2.10766 76.0438 1.35385C74.4797 0.418661 72.6652 -0.00599852 70.8506 0.138462L62.0881 0ZM67.4038 8.52308L67.5417 0.661544L69.9927 0.661544C71.1615 0.56765 72.3178 0.956584 73.1944 1.73847C73.7606 2.58361 74.0103 3.60291 73.8991 4.61539C73.9446 5.68751 73.5956 6.73894 72.9187 7.56924C71.9424 8.30791 70.7386 8.67824 69.5178 8.61539L67.4038 8.52308ZM67.2505 18.5385L67.4037 9.09231L69.7169 9.09231C71.0089 9.08003 72.2708 9.48448 73.3168 10.2462C74.3656 11.1525 74.8848 12.5313 74.6956 13.9077C74.8439 15.3868 74.2736 16.8472 73.1637 17.8308C72.357 18.3237 71.4268 18.5746 70.4828 18.5539L67.2505 18.5385ZM85.2811 13.2308L90.9338 13.6462L92.6496 19.6615L90.0913 19.4615L90.0913 20.0462L98.0419 20.6154L98.0419 20L96.0657 19.8615L90.7959 1.01538L90.2751 1.01538L82.7228 16.9231C82.5437 17.3271 82.2888 17.6927 81.9721 18C81.4883 18.4422 80.8642 18.6983 80.2104 18.7231L80.2104 19.2923L85.1126 19.6615L85.1126 19.0769C84.7591 19.0242 84.4106 18.9419 84.0709 18.8308C83.5963 18.7234 83.2831 18.2684 83.3509 17.7846C83.495 17.0645 83.7319 16.3663 84.0555 15.7077L85.2811 13.2308ZM90.7806 13.0461L85.4648 12.6615L88.8504 5.67691L90.7806 13.0461ZM102.928 1.87692L102.928 2.44615L105.134 2.70769L103.005 20.4615L100.784 20.2L100.784 20.7692L108.229 21.6462L108.229 21.0769L106.207 20.8462L107.294 11.6154L115.781 12.6154L114.693 21.8462L112.687 21.5385L112.687 22.1231L120.132 23L120.132 22.4154L117.956 22.2154L119.994 4.47692L122.2 4.72308L122.2 4.15385L114.893 3.27692L114.893 3.84615L116.915 4.09231L115.98 12.0308L107.509 11.0308L108.29 3.07692L110.297 3.32308L110.297 2.75385L102.928 1.87692Z" id="Shape" fill="#951320" fill-rule="evenodd" stroke="none" />
</svg>