<?xml version="1.0" encoding="utf-8"?>
<svg width="26px" height="24px" viewBox="0 0 26 24" version="1.1" xmlns:xlink="http://www.w3.org/1999/xlink" xmlns="http://www.w3.org/2000/svg">
  <desc>Created with Lunacy</desc>
  <path d="M23.8923 2.69589C23.9988 2.21589 24.4884 1.90997 24.986 2.01301C25.4834 2.11598 25.8002 2.58844 25.6938 3.06837L24.5641 8.15538C24.5129 8.38585 24.3689 8.58731 24.1638 8.71538C24.0355 8.79545 23.8899 8.84274 23.7406 8.8549C23.6509 8.86215 23.56 8.85682 23.4704 8.83826L18.1991 7.74812C17.7018 7.6453 17.3849 7.17269 17.4915 6.69269C17.5979 6.21269 18.0875 5.90684 18.585 6.00974L21.6559 6.64484C19.8572 3.65532 16.5349 1.77778 12.8926 1.77778C7.30581 1.77778 2.76064 6.16405 2.76064 11.5556C2.76064 12.0464 2.34821 12.4444 1.83955 12.4444C1.33081 12.4444 0.918457 12.0464 0.918457 11.5556C0.918457 5.18372 6.29004 0 12.8926 0C17.18 0 21.0917 2.20174 23.2229 5.71036L23.8923 2.69589ZM22.9392 11.6235C22.9223 11.1123 23.3228 10.6842 23.8336 10.6673C24.3444 10.6491 24.7724 11.0512 24.7892 11.5623C24.8953 14.7767 23.7443 17.8399 21.5481 20.1878C19.3518 22.5357 16.3735 23.8872 13.1616 23.9934C13.028 23.9979 12.8942 24 12.7612 24C8.61922 24.0002 4.8014 21.8722 2.60807 18.4159L1.81963 21.3587C1.70879 21.7724 1.33482 22.0453 0.926274 22.0453C0.846904 22.0453 0.76635 22.035 0.686018 22.0134C0.192326 21.8809 -0.100572 21.373 0.0318092 20.879L1.43448 15.6431C1.49808 15.4058 1.65319 15.2035 1.86583 15.0808C2.07832 14.9581 2.33102 14.9249 2.56809 14.9884L7.79998 16.3921C8.29367 16.5248 8.58657 17.0326 8.45419 17.5267C8.32181 18.0208 7.81427 18.3138 7.32058 18.1814L4.10381 17.3182C5.94871 20.3044 9.21546 22.1475 12.7616 22.1477C12.8745 22.1477 12.9872 22.1458 13.1004 22.1421C15.8182 22.0523 18.3383 20.9086 20.1966 18.922C22.055 16.9352 23.0289 14.3433 22.9392 11.6235Z" id="Combined-Shape" fill="#6E6969" fill-rule="evenodd" stroke="none" />
</svg>