<?xml version="1.0" encoding="utf-8"?>
<svg width="12px" height="20px" viewBox="0 0 12 20" version="1.1" xmlns:xlink="http://www.w3.org/1999/xlink" xmlns="http://www.w3.org/2000/svg">
  <desc>Created with Lunacy</desc>
  <g id="Group">
    <path d="M-1.13679e-12 1.64848e-12L1.79264 0.0535117L2.16726 12.6031Q2.16983 12.6893 2.1549 12.7743Q2.13996 12.8593 2.10814 12.9395Q2.07631 13.0197 2.02891 13.0918Q1.98152 13.1638 1.92051 13.2249Q1.8595 13.2859 1.7874 13.3333Q1.71531 13.3807 1.63511 13.4125Q1.55492 13.4443 1.46994 13.4592Q1.38496 13.4742 1.29872 13.4716L1.29672 13.4715Q1.20668 13.4689 1.11875 13.4493Q1.03082 13.4298 0.948127 13.3941Q0.865432 13.3583 0.790912 13.3077Q0.716392 13.2571 0.6527 13.1935Q0.589007 13.1298 0.538406 13.0552Q0.487805 12.9807 0.452097 12.898Q0.416389 12.8153 0.396843 12.7274Q0.377298 12.6395 0.37461 12.5494L-1.13679e-12 1.64848e-12Z" transform="matrix(0.7071068 -0.7071068 0.7071068 0.7071068 0 9.544739)" id="Rectangle" fill="#424242" stroke="none" />
    <path d="M0 6.08952e-17L12.5494 0.37461Q12.6395 0.377298 12.7274 0.396843Q12.8153 0.416389 12.898 0.452097Q12.9807 0.487805 13.0552 0.538406Q13.1298 0.589007 13.1935 0.6527Q13.2571 0.716393 13.3077 0.790913Q13.3583 0.865432 13.3941 0.948128Q13.4298 1.03082 13.4493 1.11875Q13.4689 1.20668 13.4715 1.29672L13.4716 1.29872Q13.4742 1.38496 13.4592 1.46994Q13.4443 1.55492 13.4125 1.63511Q13.3807 1.71531 13.3333 1.7874Q13.2859 1.8595 13.2249 1.92051Q13.1638 1.98152 13.0917 2.02891Q13.0197 2.07631 12.9395 2.10814Q12.8593 2.13996 12.7743 2.1549Q12.6893 2.16983 12.6031 2.16726L0.0535117 1.79264L0 6.08952e-17Z" transform="matrix(0.7071068 -0.7071068 0.7071068 0.7071068 0 9.544739)" id="Rectangle" fill="#424242" stroke="none" />
  </g>
</svg>